solid OpenSCAD_Model
  facet normal 0 1 5.12556e-008
    outer loop
      vertex 67 6 14.9315
      vertex 37 6 5.62842
      vertex 37 6 14.9315
    endloop
  endfacet
  facet normal 0 1 0
    outer loop
      vertex 37 6 5.62842
      vertex 27 6 4.61287
      vertex 27 6 5.62842
    endloop
  endfacet
  facet normal 5.99143e-009 1 3.19349e-008
    outer loop
      vertex 67 6 4.86625e-007
      vertex 37 6 5.62842
      vertex 67 6 14.9315
    endloop
  endfacet
  facet normal 0 1 0
    outer loop
      vertex 67 6 4.86625e-007
      vertex 27 6 4.61287
      vertex 37 6 5.62842
    endloop
  endfacet
  facet normal 0 1 0
    outer loop
      vertex 3.19979 6 4.86625e-007
      vertex 27 6 4.61287
      vertex 67 6 4.86625e-007
    endloop
  endfacet
  facet normal 0 1 0
    outer loop
      vertex 27 6 4.61287
      vertex 3.19979 6 4.86625e-007
      vertex 0.577351 6 4.61287
    endloop
  endfacet
  facet normal 0 -1 0
    outer loop
      vertex 0.57735 -6 4.62114
      vertex 3.19402 -6 6.99096e-007
      vertex 27 -6 4.62114
    endloop
  endfacet
  facet normal 0 -1 0
    outer loop
      vertex 27 -6 5.64076
      vertex 27 -6 4.62114
      vertex 37 -6 5.64076
    endloop
  endfacet
  facet normal 0 -1 0
    outer loop
      vertex 37 -6 5.64076
      vertex 67 -6 14.9274
      vertex 37 -6 14.9274
    endloop
  endfacet
  facet normal 0 -1 0
    outer loop
      vertex 67 -6 6.99096e-007
      vertex 27 -6 4.62114
      vertex 3.19402 -6 6.99096e-007
    endloop
  endfacet
  facet normal 0 -1 0
    outer loop
      vertex 37 -6 5.64076
      vertex 67 -6 6.99096e-007
      vertex 67 -6 14.9274
    endloop
  endfacet
  facet normal 0 -1 0
    outer loop
      vertex 27 -6 4.62114
      vertex 67 -6 6.99096e-007
      vertex 37 -6 5.64076
    endloop
  endfacet
  facet normal 1 -0 0
    outer loop
      vertex 67 5.3784 14.7367
      vertex 67 6 4.86625e-007
      vertex 67 6 14.9315
    endloop
  endfacet
  facet normal 1 -0 0
    outer loop
      vertex 67 4.15823 14.437
      vertex 67 6 4.86625e-007
      vertex 67 5.3784 14.7367
    endloop
  endfacet
  facet normal 1 -0 0
    outer loop
      vertex 67 2.92166 14.2146
      vertex 67 6 4.86625e-007
      vertex 67 4.15823 14.437
    endloop
  endfacet
  facet normal 1 -0 0
    outer loop
      vertex 67 1.67356 14.0701
      vertex 67 6 4.86625e-007
      vertex 67 2.92166 14.2146
    endloop
  endfacet
  facet normal 1 -0 0
    outer loop
      vertex 67 0.418849 14.0044
      vertex 67 6 4.86625e-007
      vertex 67 1.67356 14.0701
    endloop
  endfacet
  facet normal 1 0 0
    outer loop
      vertex 67 -6 6.99096e-007
      vertex 67 0.418849 14.0044
      vertex 67 -0.837513 14.0175
    endloop
  endfacet
  facet normal 1 0 0
    outer loop
      vertex 67 -6 6.99096e-007
      vertex 67 -0.837513 14.0175
      vertex 67 -2.09057 14.1096
    endloop
  endfacet
  facet normal 1 0 0
    outer loop
      vertex 67 -6 6.99096e-007
      vertex 67 -2.09057 14.1096
      vertex 67 -3.33537 14.2801
    endloop
  endfacet
  facet normal 1 0 0
    outer loop
      vertex 67 -6 6.99096e-007
      vertex 67 -3.33537 14.2801
      vertex 67 -4.56702 14.5284
    endloop
  endfacet
  facet normal 1 0 0
    outer loop
      vertex 67 -6 6.99096e-007
      vertex 67 -4.56702 14.5284
      vertex 67 -5.78064 14.8536
    endloop
  endfacet
  facet normal 1 0 0
    outer loop
      vertex 67 -6 6.99096e-007
      vertex 67 -5.78064 14.8536
      vertex 67 -6 14.9274
    endloop
  endfacet
  facet normal 1 0 0
    outer loop
      vertex 67 0.418849 14.0044
      vertex 67 -6 6.99096e-007
      vertex 67 6 4.86625e-007
    endloop
  endfacet
  facet normal -5.684e-016 -1.77059e-008 -1
    outer loop
      vertex 67 -6 6.99096e-007
      vertex 25 -2 6.28272e-007
      vertex 67 6 4.86625e-007
    endloop
  endfacet
  facet normal 0 -1.77059e-008 -1
    outer loop
      vertex 3.19402 -6 6.99096e-007
      vertex 25 -2 6.28272e-007
      vertex 67 -6 6.99096e-007
    endloop
  endfacet
  facet normal 4.13274e-015 -1.7706e-008 -1
    outer loop
      vertex 2.90811 -1.52262 6.1982e-007
      vertex 10 -1.5 6.19419e-007
      vertex 10 -2 6.28272e-007
    endloop
  endfacet
  facet normal 3.26685e-015 -1.77059e-008 -1
    outer loop
      vertex 10 -1.5 6.19419e-007
      vertex 2.90399 -1.42502 6.18092e-007
      vertex 10 2.08316e-007 5.9286e-007
    endloop
  endfacet
  facet normal -3.31954e-014 -1.77063e-008 -1
    outer loop
      vertex 2.89106 0.712198 5.8025e-007
      vertex 10 2.08316e-007 5.9286e-007
      vertex 2.89165 0.614523 5.8198e-007
    endloop
  endfacet
  facet normal -0 -1.77059e-008 -1
    outer loop
      vertex 25 -2 6.28272e-007
      vertex 3.19402 -6 6.99096e-007
      vertex 10 -2 6.28272e-007
    endloop
  endfacet
  facet normal -8.02437e-014 -1.77058e-008 -1
    outer loop
      vertex 3.17658 -5.84728 6.96392e-007
      vertex 10 -2 6.28272e-007
      vertex 3.19402 -6 6.99096e-007
    endloop
  endfacet
  facet normal 1.49519e-013 -1.77062e-008 -1
    outer loop
      vertex 3.16555 -5.75067 6.94681e-007
      vertex 10 -2 6.28272e-007
      vertex 3.17658 -5.84728 6.96392e-007
    endloop
  endfacet
  facet normal -3.36833e-015 -1.77059e-008 -1
    outer loop
      vertex 10 -2 6.28272e-007
      vertex 3.16555 -5.75067 6.94681e-007
      vertex 3.0025 -3.6708 6.57855e-007
    endloop
  endfacet
  facet normal -6.3827e-014 -1.77061e-008 -1
    outer loop
      vertex 10 2 5.57448e-007
      vertex 3.09318 4.92369 5.05682e-007
      vertex 3.09962 5.02068 5.03964e-007
    endloop
  endfacet
  facet normal 9.55345e-015 -1.77059e-008 -1
    outer loop
      vertex 10 2 5.57448e-007
      vertex 3.09962 5.02068 5.03964e-007
      vertex 3.19979 6 4.86625e-007
    endloop
  endfacet
  facet normal -1.48752e-014 -1.77059e-008 -1
    outer loop
      vertex 2.99488 -3.57354 6.56133e-007
      vertex 10 -2 6.28272e-007
      vertex 3.0025 -3.6708 6.57855e-007
    endloop
  endfacet
  facet normal 4.49749e-015 -1.77059e-008 -1
    outer loop
      vertex 10 -2 6.28272e-007
      vertex 2.99488 -3.57354 6.56133e-007
      vertex 2.90811 -1.52262 6.1982e-007
    endloop
  endfacet
  facet normal -2.68742e-014 -1.77062e-008 -1
    outer loop
      vertex 10 2 5.57448e-007
      vertex 2.95289 2.75758 5.44035e-007
      vertex 2.95584 2.85506 5.42309e-007
    endloop
  endfacet
  facet normal 9.21736e-015 -1.77059e-008 -1
    outer loop
      vertex 10 2 5.57448e-007
      vertex 2.95584 2.85506 5.42309e-007
      vertex 3.09318 4.92369 5.05682e-007
    endloop
  endfacet
  facet normal 3.87421e-015 -1.77059e-008 -1
    outer loop
      vertex 10 -1.5 6.19419e-007
      vertex 2.90811 -1.52262 6.1982e-007
      vertex 2.90399 -1.42502 6.18092e-007
    endloop
  endfacet
  facet normal -1.06418e-015 -1.77059e-008 -1
    outer loop
      vertex 10 2.08316e-007 5.9286e-007
      vertex 2.90399 -1.42502 6.18092e-007
      vertex 2.89165 0.614523 5.8198e-007
    endloop
  endfacet
  facet normal 4.29545e-015 -1.77059e-008 -1
    outer loop
      vertex 10 2.08316e-007 5.9286e-007
      vertex 2.89106 0.712198 5.8025e-007
      vertex 10 2 5.57448e-007
    endloop
  endfacet
  facet normal 5.15853e-015 -1.77059e-008 -1
    outer loop
      vertex 10 2 5.57448e-007
      vertex 2.89106 0.712198 5.8025e-007
      vertex 2.95289 2.75758 5.44035e-007
    endloop
  endfacet
  facet normal -1.10214e-015 -1.77059e-008 -1
    outer loop
      vertex 25 2 5.57448e-007
      vertex 67 6 4.86625e-007
      vertex 25 -2 6.28272e-007
    endloop
  endfacet
  facet normal 0 -1.77059e-008 -1
    outer loop
      vertex 3.19979 6 4.86625e-007
      vertex 25 2 5.57448e-007
      vertex 10 2 5.57448e-007
    endloop
  endfacet
  facet normal 0 -1.77059e-008 -1
    outer loop
      vertex 25 2 5.57448e-007
      vertex 3.19979 6 4.86625e-007
      vertex 67 6 4.86625e-007
    endloop
  endfacet
  facet normal 0 -0.114937 0.993373
    outer loop
      vertex 0.57735 4.26609 4.30836
      vertex 27 4.38249 4.32183
      vertex 0.57735 4.38249 4.32183
    endloop
  endfacet
  facet normal -2.17479e-009 -0.114937 0.993373
    outer loop
      vertex 27 4.38249 4.32183
      vertex 0.57735 4.26609 4.30836
      vertex 27 2.51034 4.10522
    endloop
  endfacet
  facet normal -1.03711e-009 -0.114937 0.993373
    outer loop
      vertex 0.57735 2.51034 4.10522
      vertex 27 2.51034 4.10522
      vertex 0.57735 4.26609 4.30836
    endloop
  endfacet
  facet normal 0 0.0732377 0.997315
    outer loop
      vertex 27 -2.2 4.09562
      vertex 0.57735 -3.13585 4.16434
      vertex 27 -3.13585 4.16434
    endloop
  endfacet
  facet normal 0 0.0732377 0.997315
    outer loop
      vertex 0.57735 -3.13585 4.16434
      vertex 27 -2.2 4.09562
      vertex 0.57735 -2.2 4.09562
    endloop
  endfacet
  facet normal 0 -0.177085 0.984196
    outer loop
      vertex 0.577351 6 4.61287
      vertex 27 4.38249 4.32183
      vertex 27 6 4.61287
    endloop
  endfacet
  facet normal -3.19576e-009 -0.177085 0.984196
    outer loop
      vertex 0.57735 4.38249 4.32183
      vertex 27 4.38249 4.32183
      vertex 0.577351 6 4.61287
    endloop
  endfacet
  facet normal 0 0.135714 0.990748
    outer loop
      vertex 0.57735 -3.25195 4.18025
      vertex 27 -3.13585 4.16434
      vertex 0.57735 -3.13585 4.16434
    endloop
  endfacet
  facet normal -8.19042e-009 0.135716 0.990748
    outer loop
      vertex 27 -3.13585 4.16434
      vertex 0.57735 -3.25195 4.18025
      vertex 27 -5.00306 4.42012
    endloop
  endfacet
  facet normal -1.54304e-008 0.135716 0.990748
    outer loop
      vertex 0.57735 -5.00306 4.42012
      vertex 27 -5.00306 4.42012
      vertex 0.57735 -3.25195 4.18025
    endloop
  endfacet
  facet normal -1 0 0
    outer loop
      vertex 27 2.2 3.8
      vertex 27 0.607331 5.00636
      vertex 27 2.2 4.08895
    endloop
  endfacet
  facet normal -1 0 0
    outer loop
      vertex 27 -2.2 3.8
      vertex 27 2.2 3.8
      vertex 27 4 2
    endloop
  endfacet
  facet normal -1 0 0
    outer loop
      vertex 27 2.2 3.8
      vertex 27 -2.2 3.8
      vertex 27 0.607331 5.00636
    endloop
  endfacet
  facet normal -1 -0 0
    outer loop
      vertex 27 0.607331 5.00636
      vertex 27 -2.2 3.8
      vertex 27 -1.21439 5.02544
    endloop
  endfacet
  facet normal -1 0 -0
    outer loop
      vertex 27 -2.2 3.8
      vertex 27 4 2
      vertex 27 -4 2
    endloop
  endfacet
  facet normal -1 0 0
    outer loop
      vertex 27 4.23641 5.3111
      vertex 27 6 4.61287
      vertex 27 4.38249 4.32183
    endloop
  endfacet
  facet normal -1 0 0
    outer loop
      vertex 27 6 4.61287
      vertex 27 4.23641 5.3111
      vertex 27 6 5.62842
    endloop
  endfacet
  facet normal -1 0 0
    outer loop
      vertex 27 2.51034 4.10522
      vertex 27 4.23641 5.3111
      vertex 27 4.38249 4.32183
    endloop
  endfacet
  facet normal -1 0 0
    outer loop
      vertex 27 2.51034 4.10522
      vertex 27 2.42666 5.10171
      vertex 27 4.23641 5.3111
    endloop
  endfacet
  facet normal -1 0 0
    outer loop
      vertex 27 2.2 4.08895
      vertex 27 2.42666 5.10171
      vertex 27 2.51034 4.10522
    endloop
  endfacet
  facet normal -1 0 0
    outer loop
      vertex 27 2.42666 5.10171
      vertex 27 2.2 4.08895
      vertex 27 0.607331 5.00636
    endloop
  endfacet
  facet normal -1 0 0
    outer loop
      vertex 27 -2.2 4.09562
      vertex 27 -1.21439 5.02544
      vertex 27 -2.2 3.8
    endloop
  endfacet
  facet normal -1 0 0
    outer loop
      vertex 27 -2.2 4.09562
      vertex 27 -3.03132 5.15887
      vertex 27 -1.21439 5.02544
    endloop
  endfacet
  facet normal -1 0 0
    outer loop
      vertex 27 -3.13585 4.16434
      vertex 27 -3.03132 5.15887
      vertex 27 -2.2 4.09562
    endloop
  endfacet
  facet normal -1 0 0
    outer loop
      vertex 27 -3.13585 4.16434
      vertex 27 -4.83629 5.40612
      vertex 27 -3.03132 5.15887
    endloop
  endfacet
  facet normal -1 0 0
    outer loop
      vertex 27 -5.00306 4.42012
      vertex 27 -4.83629 5.40612
      vertex 27 -3.13585 4.16434
    endloop
  endfacet
  facet normal -1 0 0
    outer loop
      vertex 27 -6 4.62114
      vertex 27 -4.83629 5.40612
      vertex 27 -5.00306 4.42012
    endloop
  endfacet
  facet normal -1 -0 0
    outer loop
      vertex 27 -4.83629 5.40612
      vertex 27 -6 4.62114
      vertex 27 -6 5.64076
    endloop
  endfacet
  facet normal 0 -0.0523354 0.99863
    outer loop
      vertex 0.57735 2.51034 4.10522
      vertex 27 2.2 4.08895
      vertex 27 2.51034 4.10522
    endloop
  endfacet
  facet normal 2.07323e-009 -0.0523352 0.99863
    outer loop
      vertex 0.57735 2.39332 4.09908
      vertex 27 2.2 4.08895
      vertex 0.57735 2.51034 4.10522
    endloop
  endfacet
  facet normal 0 -0.0523355 0.99863
    outer loop
      vertex 27 2.2 4.08895
      vertex 0.57735 2.39332 4.09908
      vertex 0.57735 2.2 4.08895
    endloop
  endfacet
  facet normal 0 0.197657 0.980271
    outer loop
      vertex 27 -5.00306 4.42012
      vertex 0.57735 -6 4.62114
      vertex 27 -6 4.62114
    endloop
  endfacet
  facet normal 3.05965e-009 0.197657 0.980271
    outer loop
      vertex 27 -5.00306 4.42012
      vertex 0.57735 -5.11793 4.44328
      vertex 0.57735 -6 4.62114
    endloop
  endfacet
  facet normal 0 0.197658 0.980271
    outer loop
      vertex 0.57735 -5.11793 4.44328
      vertex 27 -5.00306 4.42012
      vertex 0.57735 -5.00306 4.42012
    endloop
  endfacet
  facet normal 0 -0.114938 0.993373
    outer loop
      vertex 27 4.23641 5.3111
      vertex 37 2.42666 5.10171
      vertex 37 4.23641 5.3111
    endloop
  endfacet
  facet normal 0 -0.114938 0.993373
    outer loop
      vertex 37 2.42666 5.10171
      vertex 27 4.23641 5.3111
      vertex 27 2.42666 5.10171
    endloop
  endfacet
  facet normal -0 0.073238 0.997314
    outer loop
      vertex 27 -1.21439 5.02544
      vertex 37 -3.03132 5.15887
      vertex 37 -1.21439 5.02544
    endloop
  endfacet
  facet normal 0 0.073238 0.997314
    outer loop
      vertex 37 -3.03132 5.15887
      vertex 27 -1.21439 5.02544
      vertex 27 -3.03132 5.15887
    endloop
  endfacet
  facet normal 0 -0.177084 0.984196
    outer loop
      vertex 27 6 5.62842
      vertex 37 4.23641 5.3111
      vertex 37 6 5.62842
    endloop
  endfacet
  facet normal 0 -0.177084 0.984196
    outer loop
      vertex 37 4.23641 5.3111
      vertex 27 6 5.62842
      vertex 27 4.23641 5.3111
    endloop
  endfacet
  facet normal -0 0.197657 0.980271
    outer loop
      vertex 27 -4.83629 5.40612
      vertex 37 -6 5.64076
      vertex 37 -4.83629 5.40612
    endloop
  endfacet
  facet normal 0 0.197657 0.980271
    outer loop
      vertex 37 -6 5.64076
      vertex 27 -4.83629 5.40612
      vertex 27 -6 5.64076
    endloop
  endfacet
  facet normal -0 0.0104718 0.999945
    outer loop
      vertex 27 0.607331 5.00636
      vertex 37 -1.21439 5.02544
      vertex 37 0.607331 5.00636
    endloop
  endfacet
  facet normal 0 0.0104718 0.999945
    outer loop
      vertex 37 -1.21439 5.02544
      vertex 27 0.607331 5.00636
      vertex 27 -1.21439 5.02544
    endloop
  endfacet
  facet normal 0 -0.0523357 0.99863
    outer loop
      vertex 27 2.42666 5.10171
      vertex 37 0.607331 5.00636
      vertex 37 2.42666 5.10171
    endloop
  endfacet
  facet normal 0 -0.0523357 0.99863
    outer loop
      vertex 37 0.607331 5.00636
      vertex 27 2.42666 5.10171
      vertex 27 0.607331 5.00636
    endloop
  endfacet
  facet normal -0 0.135715 0.990748
    outer loop
      vertex 27 -3.03132 5.15887
      vertex 37 -4.83629 5.40612
      vertex 37 -3.03132 5.15887
    endloop
  endfacet
  facet normal 0 0.135715 0.990748
    outer loop
      vertex 37 -4.83629 5.40612
      vertex 27 -3.03132 5.15887
      vertex 27 -4.83629 5.40612
    endloop
  endfacet
  facet normal -1 0 0
    outer loop
      vertex 37 6 5.62842
      vertex 37 5.3784 14.7367
      vertex 37 6 14.9315
    endloop
  endfacet
  facet normal -1 0 0
    outer loop
      vertex 37 4.15823 14.437
      vertex 37 6 5.62842
      vertex 37 4.23641 5.3111
    endloop
  endfacet
  facet normal -1 0 0
    outer loop
      vertex 37 6 5.62842
      vertex 37 4.15823 14.437
      vertex 37 5.3784 14.7367
    endloop
  endfacet
  facet normal -1 0 0
    outer loop
      vertex 37 4.23641 5.3111
      vertex 37 2.92166 14.2146
      vertex 37 4.15823 14.437
    endloop
  endfacet
  facet normal -1 0 0
    outer loop
      vertex 37 2.42666 5.10171
      vertex 37 2.92166 14.2146
      vertex 37 4.23641 5.3111
    endloop
  endfacet
  facet normal -1 0 0
    outer loop
      vertex 37 2.42666 5.10171
      vertex 37 1.67356 14.0701
      vertex 37 2.92166 14.2146
    endloop
  endfacet
  facet normal -1 0 0
    outer loop
      vertex 37 0.607331 5.00636
      vertex 37 1.67356 14.0701
      vertex 37 2.42666 5.10171
    endloop
  endfacet
  facet normal -1 0 0
    outer loop
      vertex 37 0.607331 5.00636
      vertex 37 0.418849 14.0044
      vertex 37 1.67356 14.0701
    endloop
  endfacet
  facet normal -1 0 0
    outer loop
      vertex 37 0.607331 5.00636
      vertex 37 -0.837513 14.0175
      vertex 37 0.418849 14.0044
    endloop
  endfacet
  facet normal -1 0 0
    outer loop
      vertex 37 -1.21439 5.02544
      vertex 37 -0.837513 14.0175
      vertex 37 0.607331 5.00636
    endloop
  endfacet
  facet normal -1 0 0
    outer loop
      vertex 37 -1.21439 5.02544
      vertex 37 -2.09057 14.1096
      vertex 37 -0.837513 14.0175
    endloop
  endfacet
  facet normal -1 0 0
    outer loop
      vertex 37 -3.03132 5.15887
      vertex 37 -2.09057 14.1096
      vertex 37 -1.21439 5.02544
    endloop
  endfacet
  facet normal -1 0 0
    outer loop
      vertex 37 -3.03132 5.15887
      vertex 37 -3.33537 14.2801
      vertex 37 -2.09057 14.1096
    endloop
  endfacet
  facet normal -1 0 0
    outer loop
      vertex 37 -4.83629 5.40612
      vertex 37 -3.33537 14.2801
      vertex 37 -3.03132 5.15887
    endloop
  endfacet
  facet normal -1 0 0
    outer loop
      vertex 37 -6 5.64076
      vertex 37 -3.33537 14.2801
      vertex 37 -4.83629 5.40612
    endloop
  endfacet
  facet normal -1 -0 0
    outer loop
      vertex 37 -3.33537 14.2801
      vertex 37 -6 5.64076
      vertex 37 -4.56702 14.5284
    endloop
  endfacet
  facet normal -1 -0 0
    outer loop
      vertex 37 -4.56702 14.5284
      vertex 37 -6 5.64076
      vertex 37 -5.78064 14.8536
    endloop
  endfacet
  facet normal -1 -0 0
    outer loop
      vertex 37 -5.78064 14.8536
      vertex 37 -6 5.64076
      vertex 37 -6 14.9274
    endloop
  endfacet
  facet normal -0 0.258819 0.965926
    outer loop
      vertex 37 -4.56702 14.5284
      vertex 67 -5.78064 14.8536
      vertex 67 -4.56702 14.5284
    endloop
  endfacet
  facet normal 0 0.258819 0.965926
    outer loop
      vertex 67 -5.78064 14.8536
      vertex 37 -4.56702 14.5284
      vertex 37 -5.78064 14.8536
    endloop
  endfacet
  facet normal 0 -0.0523362 0.99863
    outer loop
      vertex 37 1.67356 14.0701
      vertex 67 0.418849 14.0044
      vertex 67 1.67356 14.0701
    endloop
  endfacet
  facet normal 0 -0.0523362 0.99863
    outer loop
      vertex 67 0.418849 14.0044
      vertex 37 1.67356 14.0701
      vertex 37 0.418849 14.0044
    endloop
  endfacet
  facet normal -0 0.318963 0.947767
    outer loop
      vertex 37 -5.78064 14.8536
      vertex 67 -6 14.9274
      vertex 67 -5.78064 14.8536
    endloop
  endfacet
  facet normal 0 0.318963 0.947767
    outer loop
      vertex 67 -6 14.9274
      vertex 37 -5.78064 14.8536
      vertex 37 -6 14.9274
    endloop
  endfacet
  facet normal 0 -0.299041 0.95424
    outer loop
      vertex 37 6 14.9315
      vertex 67 5.3784 14.7367
      vertex 67 6 14.9315
    endloop
  endfacet
  facet normal 0 -0.299041 0.95424
    outer loop
      vertex 67 5.3784 14.7367
      vertex 37 6 14.9315
      vertex 37 5.3784 14.7367
    endloop
  endfacet
  facet normal -0 0.073237 0.997315
    outer loop
      vertex 37 -0.837513 14.0175
      vertex 67 -2.09057 14.1096
      vertex 67 -0.837513 14.0175
    endloop
  endfacet
  facet normal 0 0.073237 0.997315
    outer loop
      vertex 67 -2.09057 14.1096
      vertex 37 -0.837513 14.0175
      vertex 37 -2.09057 14.1096
    endloop
  endfacet
  facet normal -0 0.0104724 0.999945
    outer loop
      vertex 37 0.418849 14.0044
      vertex 67 -0.837513 14.0175
      vertex 67 0.418849 14.0044
    endloop
  endfacet
  facet normal 0 0.0104724 0.999945
    outer loop
      vertex 67 -0.837513 14.0175
      vertex 37 0.418849 14.0044
      vertex 37 -0.837513 14.0175
    endloop
  endfacet
  facet normal 0 -0.177085 0.984196
    outer loop
      vertex 37 4.15823 14.437
      vertex 67 2.92166 14.2146
      vertex 67 4.15823 14.437
    endloop
  endfacet
  facet normal 0 -0.177085 0.984196
    outer loop
      vertex 67 2.92166 14.2146
      vertex 37 4.15823 14.437
      vertex 37 2.92166 14.2146
    endloop
  endfacet
  facet normal 0 -0.238533 0.971134
    outer loop
      vertex 37 5.3784 14.7367
      vertex 67 4.15823 14.437
      vertex 67 5.3784 14.7367
    endloop
  endfacet
  facet normal 0 -0.238533 0.971134
    outer loop
      vertex 67 4.15823 14.437
      vertex 37 5.3784 14.7367
      vertex 37 4.15823 14.437
    endloop
  endfacet
  facet normal 0 -0.114937 0.993373
    outer loop
      vertex 37 2.92166 14.2146
      vertex 67 1.67356 14.0701
      vertex 67 2.92166 14.2146
    endloop
  endfacet
  facet normal 0 -0.114937 0.993373
    outer loop
      vertex 67 1.67356 14.0701
      vertex 37 2.92166 14.2146
      vertex 37 1.67356 14.0701
    endloop
  endfacet
  facet normal -0 0.135717 0.990748
    outer loop
      vertex 37 -2.09057 14.1096
      vertex 67 -3.33537 14.2801
      vertex 67 -2.09057 14.1096
    endloop
  endfacet
  facet normal 0 0.135717 0.990748
    outer loop
      vertex 67 -3.33537 14.2801
      vertex 37 -2.09057 14.1096
      vertex 37 -3.33537 14.2801
    endloop
  endfacet
  facet normal -0 0.197656 0.980271
    outer loop
      vertex 37 -3.33537 14.2801
      vertex 67 -4.56702 14.5284
      vertex 67 -3.33537 14.2801
    endloop
  endfacet
  facet normal 0 0.197656 0.980271
    outer loop
      vertex 67 -4.56702 14.5284
      vertex 37 -3.33537 14.2801
      vertex 37 -4.56702 14.5284
    endloop
  endfacet
  facet normal -0.865919 0.0885752 -0.49228
    outer loop
      vertex 0.57735 4.38249 4.32183
      vertex 3.19979 6 4.86625e-007
      vertex 3.09962 5.02068 5.03964e-007
    endloop
  endfacet
  facet normal -0.865919 0.0885752 -0.49228
    outer loop
      vertex 3.19979 6 4.86625e-007
      vertex 0.57735 4.38249 4.32183
      vertex 0.577351 6 4.61287
    endloop
  endfacet
  facet normal -0.865919 0.0574899 -0.49687
    outer loop
      vertex 3.09318 4.92369 5.05682e-007
      vertex 0.57735 4.38249 4.32183
      vertex 3.09962 5.02068 5.03964e-007
    endloop
  endfacet
  facet normal -0.865919 0.0574897 -0.49687
    outer loop
      vertex 0.57735 4.26609 4.30836
      vertex 0.57735 4.38249 4.32183
      vertex 3.09318 4.92369 5.05682e-007
    endloop
  endfacet
  facet normal -0.865919 0.0574898 -0.49687
    outer loop
      vertex 3.09318 4.92369 5.05682e-007
      vertex 1.88424 4 2
      vertex 0.57735 4.26609 4.30836
    endloop
  endfacet
  facet normal -0.865919 0.0574898 -0.49687
    outer loop
      vertex 2.95584 2.85506 5.42309e-007
      vertex 1.88424 4 2
      vertex 3.09318 4.92369 5.05682e-007
    endloop
  endfacet
  facet normal -0.865919 0.0574899 -0.49687
    outer loop
      vertex 1.88424 4 2
      vertex 2.95584 2.85506 5.42309e-007
      vertex 1.79707 2.68712 2
    endloop
  endfacet
  facet normal -0.865919 0.0574898 -0.49687
    outer loop
      vertex 0.966682 2.56676 3.43324
      vertex 0.57735 4.26609 4.30836
      vertex 1.88424 4 2
    endloop
  endfacet
  facet normal -0.865918 0.0574899 -0.49687
    outer loop
      vertex 0.57735 4.26609 4.30836
      vertex 0.966682 2.56676 3.43324
      vertex 0.57735 2.51034 4.10522
    endloop
  endfacet
  facet normal -0.865918 0.0261794 -0.4995
    outer loop
      vertex 0.890541 2.44134 3.55866
      vertex 0.57735 2.51034 4.10522
      vertex 0.966682 2.56676 3.43324
    endloop
  endfacet
  facet normal -0.865919 0.0261782 -0.499499
    outer loop
      vertex 0.57735 2.51034 4.10522
      vertex 0.890541 2.44134 3.55866
      vertex 0.57735 2.39332 4.09908
    endloop
  endfacet
  facet normal -0.865919 0.0261792 -0.4995
    outer loop
      vertex 2.95289 2.75758 5.44035e-007
      vertex 1.79707 2.68712 2
      vertex 2.95584 2.85506 5.42309e-007
    endloop
  endfacet
  facet normal -0.865919 0.0261796 -0.499499
    outer loop
      vertex 1.79707 2.68712 2
      vertex 2.95289 2.75758 5.44035e-007
      vertex 1.79383 2.57985 2
    endloop
  endfacet
  facet normal -0.865918 0.0261776 -0.4995
    outer loop
      vertex 2.89106 0.712198 5.8025e-007
      vertex 1.79383 2.57985 2
      vertex 2.95289 2.75758 5.44035e-007
    endloop
  endfacet
  facet normal -0.865919 0.0261776 -0.4995
    outer loop
      vertex 1.79383 2.57985 2
      vertex 2.89106 0.712198 5.8025e-007
      vertex 1.7361 0.670304 2
    endloop
  endfacet
  facet normal -0.865919 0.0261777 -0.499499
    outer loop
      vertex 0.744027 2.2 3.8
      vertex 0.57735 2.39332 4.09908
      vertex 0.890541 2.44134 3.55866
    endloop
  endfacet
  facet normal -0.865919 0.0261774 -0.499499
    outer loop
      vertex 0.57735 2.39332 4.09908
      vertex 0.744027 2.2 3.8
      vertex 0.57735 2.2 4.08895
    endloop
  endfacet
  facet normal -0.865919 -0.00523975 -0.500158
    outer loop
      vertex 2.89165 0.614523 5.8198e-007
      vertex 1.7361 0.670304 2
      vertex 2.89106 0.712198 5.8025e-007
    endloop
  endfacet
  facet normal -0.865918 -0.00523949 -0.500158
    outer loop
      vertex 1.7361 0.670304 2
      vertex 2.89165 0.614523 5.8198e-007
      vertex 1.73675 0.562912 2
    endloop
  endfacet
  facet normal -0.865919 -0.00523774 -0.500158
    outer loop
      vertex 2.89165 0.614523 5.8198e-007
      vertex 1.74827 -1.3412 2
      vertex 1.73675 0.562912 2
    endloop
  endfacet
  facet normal -0.865919 -0.00523775 -0.500158
    outer loop
      vertex 1.74827 -1.3412 2
      vertex 2.89165 0.614523 5.8198e-007
      vertex 2.90399 -1.42502 6.18092e-007
    endloop
  endfacet
  facet normal -0.865919 -0.0366323 -0.498842
    outer loop
      vertex 2.90399 -1.42502 6.18092e-007
      vertex 1.75281 -1.44852 2
      vertex 1.74827 -1.3412 2
    endloop
  endfacet
  facet normal -0.865919 -0.0366323 -0.498842
    outer loop
      vertex 1.75281 -1.44852 2
      vertex 2.90399 -1.42502 6.18092e-007
      vertex 2.90811 -1.52262 6.1982e-007
    endloop
  endfacet
  facet normal -0.865918 -0.0366326 -0.498842
    outer loop
      vertex 0.747649 -2.2 3.8
      vertex 0.57735 -3.13585 4.16434
      vertex 0.57735 -2.2 4.09562
    endloop
  endfacet
  facet normal -0.865919 -0.0366326 -0.498842
    outer loop
      vertex 0.57735 -3.13585 4.16434
      vertex 0.747649 -2.2 3.8
      vertex 1.4208 -3.28856 2.71144
    endloop
  endfacet
  facet normal -0.865919 -0.0366326 -0.498842
    outer loop
      vertex 2.90811 -1.52262 6.1982e-007
      vertex 1.83382 -3.36334 2
      vertex 1.75281 -1.44852 2
    endloop
  endfacet
  facet normal -0.865919 -0.0366326 -0.498842
    outer loop
      vertex 1.83382 -3.36334 2
      vertex 2.90811 -1.52262 6.1982e-007
      vertex 2.99488 -3.57354 6.56133e-007
    endloop
  endfacet
  facet normal -0.865919 -0.0678829 -0.495557
    outer loop
      vertex 2.99488 -3.57354 6.56133e-007
      vertex 1.84221 -3.4704 2
      vertex 1.83382 -3.36334 2
    endloop
  endfacet
  facet normal -0.865918 -0.0678833 -0.495557
    outer loop
      vertex 1.84221 -3.4704 2
      vertex 2.99488 -3.57354 6.56133e-007
      vertex 3.0025 -3.6708 6.57855e-007
    endloop
  endfacet
  facet normal -0.865919 -0.0678818 -0.495557
    outer loop
      vertex 1.4208 -3.28856 2.71144
      vertex 0.57735 -3.25195 4.18025
      vertex 0.57735 -3.13585 4.16434
    endloop
  endfacet
  facet normal -0.865919 -0.0678827 -0.495557
    outer loop
      vertex 0.57735 -3.25195 4.18025
      vertex 1.4208 -3.28856 2.71144
      vertex 1.50075 -3.41143 2.58857
    endloop
  endfacet
  facet normal -0.865918 -0.067883 -0.495557
    outer loop
      vertex 3.0025 -3.6708 6.57855e-007
      vertex 1.88373 -4 2
      vertex 1.84221 -3.4704 2
    endloop
  endfacet
  facet normal -0.865919 -0.0678828 -0.495557
    outer loop
      vertex 3.16555 -5.75067 6.94681e-007
      vertex 1.88373 -4 2
      vertex 3.0025 -3.6708 6.57855e-007
    endloop
  endfacet
  facet normal -0.865919 -0.0678829 -0.495557
    outer loop
      vertex 1.88373 -4 2
      vertex 3.16555 -5.75067 6.94681e-007
      vertex 0.57735 -5.00306 4.42012
    endloop
  endfacet
  facet normal -0.865919 -0.0678829 -0.495557
    outer loop
      vertex 0.57735 -5.00306 4.42012
      vertex 1.50075 -3.41143 2.58857
      vertex 1.88373 -4 2
    endloop
  endfacet
  facet normal -0.865919 -0.0678829 -0.495557
    outer loop
      vertex 1.50075 -3.41143 2.58857
      vertex 0.57735 -5.00306 4.42012
      vertex 0.57735 -3.25195 4.18025
    endloop
  endfacet
  facet normal -0.865918 -0.0988678 -0.490317
    outer loop
      vertex 3.16555 -5.75067 6.94681e-007
      vertex 0.57735 -5.11793 4.44328
      vertex 0.57735 -5.00306 4.42012
    endloop
  endfacet
  facet normal -0.865919 -0.0988666 -0.490317
    outer loop
      vertex 0.57735 -5.11793 4.44328
      vertex 3.16555 -5.75067 6.94681e-007
      vertex 3.17658 -5.84728 6.96392e-007
    endloop
  endfacet
  facet normal -0.865919 -0.0988653 -0.490317
    outer loop
      vertex 3.19402 -6 6.99096e-007
      vertex 0.57735 -5.11793 4.44328
      vertex 3.17658 -5.84728 6.96392e-007
    endloop
  endfacet
  facet normal -0.865919 -0.0988652 -0.490317
    outer loop
      vertex 0.57735 -5.11793 4.44328
      vertex 3.19402 -6 6.99096e-007
      vertex 0.57735 -6 4.62114
    endloop
  endfacet
  facet normal 0 0.707107 -0.707107
    outer loop
      vertex 27 -2.2 3.8
      vertex 1.4208 -3.28856 2.71144
      vertex 0.747649 -2.2 3.8
    endloop
  endfacet
  facet normal 0 0.707107 -0.707107
    outer loop
      vertex 27 -2.2 3.8
      vertex 1.50075 -3.41143 2.58857
      vertex 1.4208 -3.28856 2.71144
    endloop
  endfacet
  facet normal 0 0.707107 -0.707107
    outer loop
      vertex 1.88373 -4 2
      vertex 27 -2.2 3.8
      vertex 27 -4 2
    endloop
  endfacet
  facet normal -1.32001e-008 0.707107 -0.707107
    outer loop
      vertex 27 -2.2 3.8
      vertex 1.88373 -4 2
      vertex 1.50075 -3.41143 2.58857
    endloop
  endfacet
  facet normal -2.98023e-008 2.98023e-008 1
    outer loop
      vertex 27 4 2
      vertex 25 2 2
      vertex 27 -4 2
    endloop
  endfacet
  facet normal 0 0 1
    outer loop
      vertex 27 4 2
      vertex 10 2 2
      vertex 25 2 2
    endloop
  endfacet
  facet normal -0 0 1
    outer loop
      vertex 1.79707 2.68712 2
      vertex 10 2 2
      vertex 1.88424 4 2
    endloop
  endfacet
  facet normal -0 0 1
    outer loop
      vertex 1.88424 4 2
      vertex 10 2 2
      vertex 27 4 2
    endloop
  endfacet
  facet normal 5.96047e-008 5.96047e-008 1
    outer loop
      vertex 25 -2 2
      vertex 27 -4 2
      vertex 25 2 2
    endloop
  endfacet
  facet normal -0 0 1
    outer loop
      vertex 10 -2 2
      vertex 27 -4 2
      vertex 25 -2 2
    endloop
  endfacet
  facet normal 0 0 1
    outer loop
      vertex 10 -2 2
      vertex 1.88373 -4 2
      vertex 27 -4 2
    endloop
  endfacet
  facet normal -0 0 1
    outer loop
      vertex 1.79383 2.57985 2
      vertex 10 2 2
      vertex 1.79707 2.68712 2
    endloop
  endfacet
  facet normal 0 0 1
    outer loop
      vertex 10 -2 2
      vertex 1.84221 -3.4704 2
      vertex 1.88373 -4 2
    endloop
  endfacet
  facet normal 2.88226e-008 1.74399e-010 1
    outer loop
      vertex 1.73675 0.562912 2
      vertex 10 2 2
      vertex 1.7361 0.670304 2
    endloop
  endfacet
  facet normal 8.80358e-009 1.2459e-007 1
    outer loop
      vertex 1.7361 0.670304 2
      vertex 10 2 2
      vertex 1.79383 2.57985 2
    endloop
  endfacet
  facet normal 0 -0 1
    outer loop
      vertex 1.83382 -3.36334 2
      vertex 10 -2 2
      vertex 1.75281 -1.44852 2
    endloop
  endfacet
  facet normal 0 0 1
    outer loop
      vertex 10 -2 2
      vertex 1.83382 -3.36334 2
      vertex 1.84221 -3.4704 2
    endloop
  endfacet
  facet normal -0 -0 1
    outer loop
      vertex 1.74827 -1.3412 2
      vertex 10 -2 2
      vertex 1.73675 0.562912 2
    endloop
  endfacet
  facet normal 0 0 1
    outer loop
      vertex 10 -2 2
      vertex 1.74827 -1.3412 2
      vertex 1.75281 -1.44852 2
    endloop
  endfacet
  facet normal 1.84869e-008 5.96047e-008 1
    outer loop
      vertex 10 2 2
      vertex 1.73675 0.562912 2
      vertex 10 -2 2
    endloop
  endfacet
  facet normal 0 -0.707107 -0.707106
    outer loop
      vertex 0.890541 2.44134 3.55866
      vertex 27 2.2 3.8
      vertex 0.744027 2.2 3.8
    endloop
  endfacet
  facet normal 1.87764e-008 -0.707106 -0.707107
    outer loop
      vertex 0.966682 2.56676 3.43324
      vertex 27 2.2 3.8
      vertex 0.890541 2.44134 3.55866
    endloop
  endfacet
  facet normal 0 -0.707107 -0.707107
    outer loop
      vertex 1.88424 4 2
      vertex 27 2.2 3.8
      vertex 0.966682 2.56676 3.43324
    endloop
  endfacet
  facet normal 0 -0.707107 -0.707107
    outer loop
      vertex 27 2.2 3.8
      vertex 1.88424 4 2
      vertex 27 4 2
    endloop
  endfacet
  facet normal 0 -1 0
    outer loop
      vertex 0.744027 2.2 3.8
      vertex 27 2.2 4.08895
      vertex 0.57735 2.2 4.08895
    endloop
  endfacet
  facet normal 0 -1 -0
    outer loop
      vertex 27 2.2 4.08895
      vertex 0.744027 2.2 3.8
      vertex 27 2.2 3.8
    endloop
  endfacet
  facet normal 0 1 0
    outer loop
      vertex 0.747649 -2.2 3.8
      vertex 27 -2.2 4.09562
      vertex 27 -2.2 3.8
    endloop
  endfacet
  facet normal 0 1 0
    outer loop
      vertex 27 -2.2 4.09562
      vertex 0.747649 -2.2 3.8
      vertex 0.57735 -2.2 4.09562
    endloop
  endfacet
  facet normal 0 -1 -1.19209e-007
    outer loop
      vertex 10 2 5.57448e-007
      vertex 25 2 2
      vertex 10 2 2
    endloop
  endfacet
  facet normal 0 -1 -1.19209e-007
    outer loop
      vertex 25 2 2
      vertex 10 2 5.57448e-007
      vertex 25 2 5.57448e-007
    endloop
  endfacet
  facet normal -1 0 0
    outer loop
      vertex 10 -1.5 6.19419e-007
      vertex 10 2.08316e-007 5.9286e-007
      vertex 10 -1.5 4.40605e-007
    endloop
  endfacet
  facet normal 1 0 0
    outer loop
      vertex 10 2 5.57448e-007
      vertex 10 1.5 1
      vertex 10 1.5 7.45115e-007
    endloop
  endfacet
  facet normal 1 0 0
    outer loop
      vertex 10 2 2
      vertex 10 -1.5 1
      vertex 10 1.5 1
    endloop
  endfacet
  facet normal 1 0 0
    outer loop
      vertex 10 -1.5 1
      vertex 10 -2 2
      vertex 10 -2 6.28272e-007
    endloop
  endfacet
  facet normal 1 0 0
    outer loop
      vertex 10 -2 2
      vertex 10 -1.5 1
      vertex 10 2 2
    endloop
  endfacet
  facet normal 1 -0 0
    outer loop
      vertex 10 1.5 1
      vertex 10 2 5.57448e-007
      vertex 10 2 2
    endloop
  endfacet
  facet normal 1 0 0
    outer loop
      vertex 10 2 5.57448e-007
      vertex 10 1.5 7.45115e-007
      vertex 10 2.08316e-007 5.9286e-007
    endloop
  endfacet
  facet normal 1 0 0
    outer loop
      vertex 10 -1.5 6.19419e-007
      vertex 10 -1.5 1
      vertex 10 -2 6.28272e-007
    endloop
  endfacet
  facet normal -1 0 0
    outer loop
      vertex 25 -2 6.28272e-007
      vertex 25 2 2
      vertex 25 2 5.57448e-007
    endloop
  endfacet
  facet normal -1 -0 0
    outer loop
      vertex 25 2 2
      vertex 25 -2 6.28272e-007
      vertex 25 -2 2
    endloop
  endfacet
  facet normal 0 1 5.96046e-008
    outer loop
      vertex 25 -2 6.28272e-007
      vertex 10 -2 2
      vertex 25 -2 2
    endloop
  endfacet
  facet normal 0 1 5.96046e-008
    outer loop
      vertex 10 -2 2
      vertex 25 -2 6.28272e-007
      vertex 10 -2 6.28272e-007
    endloop
  endfacet
  facet normal 0 1.01503e-007 -1
    outer loop
      vertex 10 2.08316e-007 5.9286e-007
      vertex 24 -1.5 4.40605e-007
      vertex 10 -1.5 4.40605e-007
    endloop
  endfacet
  facet normal -2.1825e-016 1.01503e-007 -1
    outer loop
      vertex 24 -1.5 4.40605e-007
      vertex 10 2.08316e-007 5.9286e-007
      vertex 24 1.5 7.45115e-007
    endloop
  endfacet
  facet normal 0 1.01503e-007 -1
    outer loop
      vertex 24 1.5 7.45115e-007
      vertex 10 2.08316e-007 5.9286e-007
      vertex 10 1.5 7.45115e-007
    endloop
  endfacet
  facet normal 0 1 2.38418e-007
    outer loop
      vertex 24 1.5 7.45115e-007
      vertex 19.1 1.5 1
      vertex 24 1.5 1
    endloop
  endfacet
  facet normal -0 1 2.38418e-007
    outer loop
      vertex 10 1.5 7.45115e-007
      vertex 19.1 1.5 1
      vertex 24 1.5 7.45115e-007
    endloop
  endfacet
  facet normal 0 1 2.38418e-007
    outer loop
      vertex 19.1 1.5 1
      vertex 10 1.5 7.45115e-007
      vertex 10 1.5 1
    endloop
  endfacet
  facet normal 0 -1.19209e-007 1
    outer loop
      vertex 10 1.5 1
      vertex 19.1 -1.5 1
      vertex 19.1 1.5 1
    endloop
  endfacet
  facet normal 0 -1.19209e-007 1
    outer loop
      vertex 19.1 -1.5 1
      vertex 10 1.5 1
      vertex 10 -1.5 1
    endloop
  endfacet
  facet normal 0 -1 -3.57628e-007
    outer loop
      vertex 10 -1.5 6.19419e-007
      vertex 19.1 -1.5 1
      vertex 10 -1.5 1
    endloop
  endfacet
  facet normal -3.92997e-008 -1 0
    outer loop
      vertex 10 -1.5 4.40605e-007
      vertex 19.1 -1.5 1
      vertex 10 -1.5 6.19419e-007
    endloop
  endfacet
  facet normal 0 -1 -3.57628e-007
    outer loop
      vertex 19.1 -1.5 1
      vertex 10 -1.5 4.40605e-007
      vertex 24 -1.5 4.40605e-007
    endloop
  endfacet
  facet normal 0 -1 -3.57628e-007
    outer loop
      vertex 19.1 -1.5 1
      vertex 24 -1.5 4.40605e-007
      vertex 24 -1.5 1
    endloop
  endfacet
  facet normal 1 0 0
    outer loop
      vertex 24 -1.5 1
      vertex 24 1.5 1
      vertex 24 1.5 1.90001
    endloop
  endfacet
  facet normal 1 0 0
    outer loop
      vertex 24 -1.5 1
      vertex 24 1.5 1.90001
      vertex 24 -1.5 1.90001
    endloop
  endfacet
  facet normal 1 0 0
    outer loop
      vertex 24 1.5 1
      vertex 24 -1.5 1
      vertex 24 -1.5 4.40605e-007
    endloop
  endfacet
  facet normal 1 0 0
    outer loop
      vertex 24 1.5 7.45115e-007
      vertex 24 1.5 1
      vertex 24 -1.5 4.40605e-007
    endloop
  endfacet
  facet normal 0 1 -1.32453e-007
    outer loop
      vertex 19.1 1.5 1
      vertex 24 1.5 1.90001
      vertex 24 1.5 1
    endloop
  endfacet
  facet normal 0.707102 -5.61962e-008 0.707112
    outer loop
      vertex 22.9 1.5 3
      vertex 24 -1.5 1.90001
      vertex 24 1.5 1.90001
    endloop
  endfacet
  facet normal 0.707102 -5.61962e-008 0.707112
    outer loop
      vertex 24 -1.5 1.90001
      vertex 22.9 1.5 3
      vertex 22.9 -1.5 3
    endloop
  endfacet
  facet normal 1.04313e-008 1 -1.89245e-007
    outer loop
      vertex 19.1 1.5 1
      vertex 21.1 1.5 3
      vertex 24 1.5 1.90001
    endloop
  endfacet
  facet normal 0 -7.94728e-008 1
    outer loop
      vertex 21.1 1.5 3
      vertex 22.9 -1.5 3
      vertex 22.9 1.5 3
    endloop
  endfacet
  facet normal 0 -7.94728e-008 1
    outer loop
      vertex 22.9 -1.5 3
      vertex 21.1 1.5 3
      vertex 21.1 -1.5 3
    endloop
  endfacet
  facet normal 0 1 -2.16746e-007
    outer loop
      vertex 24 1.5 1.90001
      vertex 21.1 1.5 3
      vertex 22.9 1.5 3
    endloop
  endfacet
  facet normal 4.81602e-008 -1 2.64907e-007
    outer loop
      vertex 24 -1.5 1.90001
      vertex 22.9 -1.5 3
      vertex 24 -1.5 1
    endloop
  endfacet
  facet normal -0.707107 -5.61958e-008 0.707107
    outer loop
      vertex 19.1 1.5 1
      vertex 21.1 -1.5 3
      vertex 21.1 1.5 3
    endloop
  endfacet
  facet normal -0.707107 -8.42937e-008 0.707107
    outer loop
      vertex 21.1 -1.5 3
      vertex 19.1 1.5 1
      vertex 19.1 -1.5 1
    endloop
  endfacet
  facet normal 0 -1 2.38419e-007
    outer loop
      vertex 24 -1.5 1
      vertex 21.1 -1.5 3
      vertex 19.1 -1.5 1
    endloop
  endfacet
  facet normal 0 -1 2.38419e-007
    outer loop
      vertex 21.1 -1.5 3
      vertex 24 -1.5 1
      vertex 22.9 -1.5 3
    endloop
  endfacet
endsolid OpenSCAD_Model
